<svg width="155" height="50" viewBox="0 0 155 50" fill="none" xmlns="http://www.w3.org/2000/svg">
<path fill-rule="evenodd" clip-rule="evenodd" d="M18.4061 12.7365C20.027 12.7365 21.599 12.9468 23.0963 13.3403L25.5928 10.4064L28.8156 21.6129L17.4009 20.0338L19.2609 17.8481C18.978 17.8302 18.693 17.8212 18.4061 17.8212C11.0491 17.8212 5.0847 23.7856 5.0847 31.1427C5.0847 38.4997 11.0491 44.4641 18.4061 44.4641C18.9819 44.4641 19.5488 44.4272 20.1057 44.3565C21.7474 45.9405 23.6492 47.1798 25.6964 48.0465C23.4609 49.0128 20.9963 49.5478 18.4061 49.5478C8.24071 49.5478 0 41.3071 0 31.1417C0 20.9763 8.24071 12.7365 18.4061 12.7365Z" fill="#0574F7"/>
<path fill-rule="evenodd" clip-rule="evenodd" d="M18.4819 44.4631C19.0318 44.4601 19.5728 44.4232 20.1048 44.3555C21.7465 45.9395 23.6483 47.1788 25.6955 48.0455C25.1695 48.2726 24.6316 48.4759 24.0827 48.6542C22.0095 47.6191 20.1058 46.2125 18.4819 44.4631Z" fill="#006CE8"/>
<path fill-rule="evenodd" clip-rule="evenodd" d="M41.7196 27.6121C40.9086 29.0157 39.9413 30.272 38.8515 31.3728L40.1446 35.002L28.8285 32.1897L35.9027 23.0932L36.866 25.797C37.0224 25.5608 37.1728 25.3188 37.3173 25.0697C40.9963 18.6979 38.8126 10.5508 32.4408 6.8718C26.069 3.19277 17.9219 5.37648 14.2429 11.7473C13.9281 12.2922 13.6571 12.8501 13.427 13.417C11.2592 14.0246 9.25382 15.0199 7.48853 16.3219C7.76448 13.8852 8.53455 11.4654 9.8396 9.20594C14.9223 0.402359 26.1786 -2.61319 34.9821 2.46852C43.7857 7.55122 46.8013 18.8075 41.7196 27.6111V27.6121Z" fill="#0574F7"/>
<path fill-rule="evenodd" clip-rule="evenodd" d="M14.1174 11.9705C13.8554 12.4447 13.6252 12.9278 13.427 13.418C11.2592 14.0257 9.25382 15.0209 7.48853 16.3229C7.55228 15.7581 7.64294 15.1932 7.76149 14.6324C9.67722 13.3951 11.8211 12.4825 14.1174 11.9715V11.9705Z" fill="#006CE8"/>
<path fill-rule="evenodd" clip-rule="evenodd" d="M16.9408 40.3029C16.1299 38.8992 15.5262 37.4328 15.1187 35.9395L11.3291 35.2441L19.4224 26.85L23.7629 37.5244L20.9396 37.0064C21.0651 37.2604 21.1996 37.5115 21.3441 37.7605C25.0221 44.1324 33.1702 46.3151 39.542 42.636C45.9138 38.958 48.0965 30.8099 44.4175 24.4381C44.1565 23.9858 43.8726 23.5545 43.5687 23.146C44.1555 20.9484 44.3179 18.6939 44.0857 16.4923C45.9517 17.9219 47.5725 19.734 48.8208 21.8968C53.9035 30.7004 50.8869 41.9566 42.0843 47.0393C33.2808 52.122 22.0245 49.1055 16.9418 40.3019L16.9408 40.3029Z" fill="#0574F7"/>
<path fill-rule="evenodd" clip-rule="evenodd" d="M44.4542 24.5049L44.4174 24.4391C44.1564 23.9868 43.8724 23.5555 43.5686 23.147C44.1554 20.9494 44.3178 18.6949 44.0856 16.4933C44.5389 16.84 44.9773 17.2105 45.3997 17.6021C45.4983 19.9053 45.1924 22.2434 44.4542 24.5039V24.5049Z" fill="#006CE8"/>
<path d="M78.6249 17.5024C78.5163 17.5567 78.5163 17.611 78.6249 17.6653C80.344 18.552 81.2035 20.0268 81.2035 22.0897C81.2035 23.845 80.6064 25.175 79.4121 26.0798C78.2177 26.9665 76.6525 27.4098 74.7162 27.4098H67.686C67.5956 27.4098 67.5141 27.3827 67.4417 27.3284C67.3875 27.256 67.3603 27.1746 67.3603 27.0841V8.73506C67.3603 8.64458 67.3875 8.5722 67.4417 8.51791C67.5141 8.44553 67.5956 8.40934 67.686 8.40934H74.4991C78.7878 8.40934 80.9321 10.1465 80.9321 13.6209C80.9321 15.4305 80.163 16.7243 78.6249 17.5024ZM71.3233 11.6937C71.2328 11.6937 71.1876 11.739 71.1876 11.8294V16.0638C71.1876 16.1543 71.2328 16.1995 71.3233 16.1995H74.4991C75.3496 16.1995 76.0101 16.0005 76.4806 15.6024C76.951 15.2043 77.1863 14.6614 77.1863 13.9738C77.1863 13.268 76.951 12.7161 76.4806 12.318C76.0101 11.9018 75.3496 11.6937 74.4991 11.6937H71.3233ZM74.7162 24.0983C75.5486 24.0983 76.2001 23.8902 76.6706 23.474C77.141 23.0397 77.3763 22.4516 77.3763 21.7097C77.3763 20.9678 77.141 20.3887 76.6706 19.9725C76.2001 19.5382 75.5396 19.3211 74.6891 19.3211H71.3233C71.2328 19.3211 71.1876 19.3663 71.1876 19.4568V23.9626C71.1876 24.0531 71.2328 24.0983 71.3233 24.0983H74.7162Z" fill="#1F2428"/>
<path d="M89.4331 13.2409C90.6093 13.2409 91.6589 13.449 92.5818 13.8652C93.5047 14.2633 94.2194 14.8152 94.7261 15.521C95.2509 16.2267 95.5133 17.0139 95.5133 17.8824V27.0841C95.5133 27.1746 95.4771 27.256 95.4047 27.3284C95.3504 27.3827 95.278 27.4098 95.1876 27.4098H92.0118C91.9213 27.4098 91.8399 27.3827 91.7675 27.3284C91.7132 27.256 91.686 27.1746 91.686 27.0841V26.1884C91.686 26.1341 91.6679 26.0979 91.6318 26.0798C91.5956 26.0617 91.5594 26.0798 91.5232 26.1341C90.7632 27.1294 89.5417 27.627 87.8588 27.627C86.4473 27.627 85.3073 27.2832 84.4387 26.5955C83.5701 25.9079 83.1358 24.8945 83.1358 23.5555C83.1358 22.1621 83.6244 21.0854 84.6016 20.3254C85.5787 19.5473 86.9721 19.1582 88.7817 19.1582H91.5503C91.6408 19.1582 91.686 19.113 91.686 19.0225V18.4253C91.686 17.8282 91.5051 17.3667 91.1432 17.041C90.7813 16.6972 90.2384 16.5253 89.5146 16.5253C88.9536 16.5253 88.4831 16.6248 88.1031 16.8238C87.7412 17.0229 87.5059 17.3034 87.3974 17.6653C87.3431 17.8643 87.2254 17.9548 87.0445 17.9367L83.7601 17.5024C83.543 17.4662 83.4434 17.3848 83.4615 17.2581C83.5339 16.4981 83.8325 15.8105 84.3573 15.1952C84.9001 14.58 85.6059 14.1004 86.4745 13.7566C87.3612 13.4128 88.3474 13.2409 89.4331 13.2409ZM88.8903 24.7769C89.6684 24.7769 90.3289 24.5688 90.8717 24.1526C91.4146 23.7364 91.686 23.2026 91.686 22.5511V21.574C91.686 21.4835 91.6408 21.4383 91.5503 21.4383H89.596C88.7817 21.4383 88.1393 21.5921 87.6688 21.8997C87.2164 22.2073 86.9902 22.6416 86.9902 23.2026C86.9902 23.6912 87.1621 24.0802 87.5059 24.3698C87.8498 24.6412 88.3112 24.7769 88.8903 24.7769Z" fill="#1F2428"/>
<path d="M104.344 27.627C102.896 27.627 101.638 27.2651 100.571 26.5412C99.5211 25.8174 98.7702 24.8222 98.3178 23.5555C98.0101 22.6507 97.8563 21.583 97.8563 20.3525C97.8563 19.1401 98.0101 18.0905 98.3178 17.2039C98.7521 15.9733 99.503 15.0052 100.571 14.2995C101.638 13.5938 102.896 13.2409 104.344 13.2409C105.791 13.2409 107.058 13.6028 108.144 14.3266C109.248 15.0505 109.98 15.9643 110.342 17.0681C110.487 17.5024 110.56 17.8282 110.56 18.0453V18.0996C110.56 18.2625 110.469 18.362 110.288 18.3982L107.167 18.8596H107.112C106.949 18.8596 106.841 18.7691 106.787 18.5882L106.705 18.1539C106.578 17.6834 106.298 17.2943 105.864 16.9867C105.429 16.6791 104.914 16.5253 104.316 16.5253C103.737 16.5253 103.249 16.67 102.851 16.9596C102.453 17.2491 102.172 17.6472 102.009 18.1539C101.81 18.6968 101.711 19.4387 101.711 20.3797C101.711 21.3206 101.801 22.0626 101.982 22.6054C102.145 23.1483 102.425 23.5735 102.824 23.8812C103.24 24.1888 103.737 24.3426 104.316 24.3426C104.877 24.3426 105.366 24.1978 105.782 23.9083C106.217 23.6007 106.515 23.1845 106.678 22.6597C106.696 22.6235 106.705 22.5692 106.705 22.4969C106.723 22.4788 106.732 22.4516 106.732 22.4154C106.75 22.1983 106.877 22.1078 107.112 22.144L110.234 22.6326C110.415 22.6688 110.505 22.7683 110.505 22.9311C110.505 23.0759 110.451 23.3474 110.342 23.7455C109.962 24.9579 109.22 25.9079 108.117 26.5955C107.031 27.2832 105.773 27.627 104.344 27.627Z" fill="#1F2428"/>
<path d="M113.114 27.4098C113.024 27.4098 112.942 27.3827 112.87 27.3284C112.815 27.256 112.788 27.1746 112.788 27.0841V8.73506C112.788 8.64458 112.815 8.5722 112.87 8.51791C112.942 8.44553 113.024 8.40934 113.114 8.40934H116.29C116.38 8.40934 116.453 8.44553 116.507 8.51791C116.579 8.5722 116.615 8.64458 116.615 8.73506V17.8824C116.615 17.9367 116.634 17.9729 116.67 17.991C116.706 17.991 116.742 17.9729 116.778 17.9367L120.47 13.648C120.597 13.5214 120.732 13.458 120.877 13.458H124.487C124.668 13.458 124.759 13.5214 124.759 13.648C124.759 13.7023 124.731 13.7747 124.677 13.8652L121.23 18.2353C121.194 18.3077 121.185 18.371 121.203 18.4253L125.247 27.0298C125.283 27.1022 125.301 27.1565 125.301 27.1927C125.301 27.3375 125.202 27.4098 125.003 27.4098H121.664C121.483 27.4098 121.357 27.3284 121.284 27.1655L118.597 20.814C118.579 20.7778 118.543 20.7597 118.488 20.7597C118.452 20.7416 118.425 20.7506 118.407 20.7868L116.67 22.9583C116.634 23.0307 116.615 23.085 116.615 23.1212V27.0841C116.615 27.1746 116.579 27.256 116.507 27.3284C116.453 27.3827 116.38 27.4098 116.29 27.4098H113.114Z" fill="#1F2428"/>
<path d="M135.404 13.7838C135.404 13.6933 135.432 13.6209 135.486 13.5666C135.558 13.4942 135.64 13.458 135.73 13.458H138.906C138.996 13.458 139.069 13.4942 139.123 13.5666C139.195 13.6209 139.232 13.6933 139.232 13.7838V27.0841C139.232 27.1746 139.195 27.256 139.123 27.3284C139.069 27.3827 138.996 27.4098 138.906 27.4098H135.73C135.64 27.4098 135.558 27.3827 135.486 27.3284C135.432 27.256 135.404 27.1746 135.404 27.0841V26.1612C135.404 26.1069 135.386 26.0798 135.35 26.0798C135.314 26.0617 135.278 26.0798 135.242 26.1341C134.518 27.1113 133.396 27.5998 131.876 27.5998C130.5 27.5998 129.369 27.1836 128.483 26.3512C127.596 25.5188 127.153 24.3517 127.153 22.8497V13.7838C127.153 13.6933 127.18 13.6209 127.234 13.5666C127.307 13.4942 127.388 13.458 127.478 13.458H130.627C130.718 13.458 130.79 13.4942 130.844 13.5666C130.917 13.6209 130.953 13.6933 130.953 13.7838V21.8997C130.953 22.6235 131.143 23.2116 131.523 23.664C131.921 24.1164 132.464 24.3426 133.151 24.3426C133.767 24.3426 134.273 24.1617 134.671 23.7997C135.07 23.4197 135.314 22.9311 135.404 22.334V13.7838Z" fill="#1F2428"/>
<path d="M154.511 17.2039C154.837 18.1267 155 19.2125 155 20.4611C155 21.7097 154.828 22.8407 154.484 23.854C154.068 25.0122 153.407 25.935 152.503 26.6227C151.616 27.2922 150.512 27.627 149.191 27.627C147.888 27.627 146.875 27.1746 146.151 26.2698C146.115 26.2155 146.079 26.1974 146.043 26.2155C146.006 26.2336 145.988 26.2698 145.988 26.3241V32.1328C145.988 32.2233 145.952 32.2957 145.88 32.35C145.825 32.4224 145.753 32.4585 145.663 32.4585H142.487C142.396 32.4585 142.315 32.4224 142.242 32.35C142.188 32.2957 142.161 32.2233 142.161 32.1328V13.7838C142.161 13.6933 142.188 13.6209 142.242 13.5666C142.315 13.4942 142.396 13.458 142.487 13.458H145.663C145.753 13.458 145.825 13.4942 145.88 13.5666C145.952 13.6209 145.988 13.6933 145.988 13.7838V14.6795C145.988 14.7338 146.006 14.77 146.043 14.7881C146.079 14.7881 146.115 14.77 146.151 14.7338C146.911 13.7385 147.961 13.2409 149.3 13.2409C150.548 13.2409 151.625 13.5938 152.53 14.2995C153.453 14.9871 154.113 15.9553 154.511 17.2039ZM150.358 23.284C150.811 22.5783 151.037 21.6192 151.037 20.4068C151.037 19.2668 150.847 18.362 150.467 17.6924C150.051 16.9143 149.381 16.5253 148.458 16.5253C147.626 16.5253 147.002 16.9143 146.585 17.6924C146.205 18.3439 146.015 19.2577 146.015 20.4339C146.015 21.6464 146.214 22.5873 146.613 23.2569C147.029 23.9807 147.644 24.3426 148.458 24.3426C149.273 24.3426 149.906 23.9897 150.358 23.284Z" fill="#1F2428"/>
<path d="M71.7226 45.6244C70.6563 45.6244 69.7232 45.4578 68.9235 45.1246C68.1238 44.778 67.504 44.2915 67.0641 43.665C66.6376 43.0253 66.4243 42.2855 66.4243 41.4458V41.0059C66.4243 40.9393 66.4443 40.886 66.4843 40.846C66.5376 40.7927 66.5976 40.766 66.6642 40.766H68.9435C69.0101 40.766 69.0634 40.7927 69.1034 40.846C69.1567 40.886 69.1834 40.9393 69.1834 41.0059V41.3058C69.1834 41.839 69.43 42.2922 69.9232 42.6654C70.4163 43.0252 71.0828 43.2052 71.9225 43.2052C72.6289 43.2052 73.1554 43.0586 73.502 42.7653C73.8485 42.4588 74.0218 42.0856 74.0218 41.6457C74.0218 41.3258 73.9152 41.0592 73.7019 40.846C73.4886 40.6194 73.1954 40.4261 72.8222 40.2662C72.4623 40.0929 71.8825 39.8596 71.0828 39.5664C70.1897 39.2598 69.43 38.9466 68.8035 38.6267C68.1904 38.3068 67.6706 37.8736 67.244 37.3271C66.8308 36.7673 66.6243 36.0809 66.6243 35.2678C66.6243 34.4681 66.8308 33.7683 67.244 33.1685C67.6572 32.5687 68.2304 32.1089 68.9635 31.789C69.6966 31.4691 70.543 31.3091 71.5026 31.3091C72.5156 31.3091 73.4153 31.4891 74.2017 31.8489C75.0015 32.2088 75.6213 32.7153 76.0611 33.3684C76.5143 34.0082 76.7409 34.7547 76.7409 35.6077V35.9076C76.7409 35.9742 76.7142 36.0342 76.6609 36.0875C76.6209 36.1275 76.5676 36.1475 76.501 36.1475H74.2017C74.1351 36.1475 74.0751 36.1275 74.0218 36.0875C73.9818 36.0342 73.9618 35.9742 73.9618 35.9076V35.7477C73.9618 35.1878 73.7286 34.7147 73.2621 34.3281C72.8089 33.9283 72.1824 33.7283 71.3827 33.7283C70.7562 33.7283 70.263 33.8616 69.9032 34.1282C69.5566 34.3948 69.3833 34.7613 69.3833 35.2278C69.3833 35.5611 69.4833 35.841 69.6832 36.0676C69.8965 36.2941 70.2031 36.5007 70.6029 36.6873C71.0161 36.8606 71.6493 37.1005 72.5023 37.4071C73.4487 37.7537 74.1884 38.0602 74.7216 38.3268C75.2681 38.5934 75.7546 38.9932 76.1811 39.5264C76.6209 40.0462 76.8409 40.726 76.8409 41.5657C76.8409 42.8187 76.381 43.8117 75.4613 44.5447C74.5416 45.2645 73.2954 45.6244 71.7226 45.6244Z" fill="#1F2428"/>
<path d="M83.1733 45.6244C82.0537 45.6244 81.094 45.3312 80.2943 44.7447C79.4945 44.1582 78.948 43.3585 78.6548 42.3455C78.4682 41.719 78.3749 41.0392 78.3749 40.3062C78.3749 39.5197 78.4682 38.8133 78.6548 38.1868C78.9614 37.2005 79.5145 36.4274 80.3143 35.8676C81.114 35.3078 82.0737 35.0279 83.1933 35.0279C84.2863 35.0279 85.2193 35.3078 85.9924 35.8676C86.7655 36.4141 87.3119 37.1805 87.6318 38.1669C87.8451 38.8333 87.9517 39.5331 87.9517 40.2662C87.9517 40.9859 87.8584 41.659 87.6718 42.2855C87.3786 43.3252 86.8321 44.1449 86.0324 44.7447C85.246 45.3312 84.2929 45.6244 83.1733 45.6244ZM83.1733 43.2052C83.6132 43.2052 83.9864 43.0719 84.2929 42.8053C84.5995 42.5387 84.8194 42.1722 84.9527 41.7057C85.0594 41.2792 85.1127 40.8126 85.1127 40.3062C85.1127 39.7463 85.0594 39.2732 84.9527 38.8866C84.8061 38.4334 84.5795 38.0802 84.2729 37.827C83.9664 37.5737 83.5932 37.4471 83.1533 37.4471C82.7001 37.4471 82.3203 37.5737 82.0137 37.827C81.7205 38.0802 81.5072 38.4334 81.3739 38.8866C81.2673 39.2065 81.214 39.6797 81.214 40.3062C81.214 40.906 81.2606 41.3725 81.3539 41.7057C81.4872 42.1722 81.7071 42.5387 82.0137 42.8053C82.3336 43.0719 82.7201 43.2052 83.1733 43.2052Z" fill="#1F2428"/>
<path d="M90.0039 45.4644C89.9372 45.4644 89.8772 45.4445 89.8239 45.4045C89.7839 45.3511 89.7639 45.2912 89.7639 45.2245V31.709C89.7639 31.6423 89.7839 31.589 89.8239 31.549C89.8772 31.4957 89.9372 31.4691 90.0039 31.4691H92.3431C92.4097 31.4691 92.463 31.4957 92.503 31.549C92.5564 31.589 92.583 31.6423 92.583 31.709V45.2245C92.583 45.2912 92.5564 45.3511 92.503 45.4045C92.463 45.4445 92.4097 45.4644 92.3431 45.4644H90.0039Z" fill="#1F2428"/>
<path d="M100.643 35.4278C100.643 35.3611 100.663 35.3078 100.703 35.2678C100.756 35.2145 100.816 35.1878 100.883 35.1878H103.222C103.289 35.1878 103.342 35.2145 103.382 35.2678C103.436 35.3078 103.462 35.3611 103.462 35.4278V45.2245C103.462 45.2912 103.436 45.3511 103.382 45.4045C103.342 45.4445 103.289 45.4644 103.222 45.4644H100.883C100.816 45.4644 100.756 45.4445 100.703 45.4045C100.663 45.3511 100.643 45.2912 100.643 45.2245V44.5447C100.643 44.5048 100.63 44.4848 100.603 44.4848C100.577 44.4714 100.55 44.4848 100.523 44.5248C99.99 45.2445 99.1636 45.6044 98.044 45.6044C97.031 45.6044 96.198 45.2978 95.5448 44.6847C94.8917 44.0716 94.5652 43.2119 94.5652 42.1056V35.4278C94.5652 35.3611 94.5852 35.3078 94.6251 35.2678C94.6785 35.2145 94.7384 35.1878 94.8051 35.1878H97.1243C97.191 35.1878 97.2443 35.2145 97.2843 35.2678C97.3376 35.3078 97.3642 35.3611 97.3642 35.4278V41.4058C97.3642 41.9389 97.5042 42.3721 97.7841 42.7054C98.0773 43.0386 98.4772 43.2052 98.9837 43.2052C99.4369 43.2052 99.8101 43.0719 100.103 42.8053C100.397 42.5254 100.577 42.1655 100.643 41.7257V35.4278Z" fill="#1F2428"/>
<path d="M111.438 37.2072C111.438 37.2738 111.411 37.3338 111.358 37.3871C111.318 37.4271 111.265 37.4471 111.198 37.4471H109.279C109.212 37.4471 109.179 37.4804 109.179 37.5471V41.7857C109.179 42.2255 109.265 42.5521 109.439 42.7653C109.625 42.9786 109.919 43.0852 110.318 43.0852H110.978C111.045 43.0852 111.098 43.1119 111.138 43.1652C111.191 43.2052 111.218 43.2585 111.218 43.3251V45.2245C111.218 45.3711 111.138 45.4578 110.978 45.4844C110.418 45.5111 110.018 45.5244 109.779 45.5244C108.672 45.5244 107.846 45.3445 107.299 44.9846C106.753 44.6114 106.473 43.9183 106.46 42.9053V37.5471C106.46 37.4804 106.426 37.4471 106.36 37.4471H105.22C105.153 37.4471 105.093 37.4271 105.04 37.3871C105 37.3338 104.98 37.2738 104.98 37.2072V35.4278C104.98 35.3611 105 35.3078 105.04 35.2678C105.093 35.2145 105.153 35.1878 105.22 35.1878H106.36C106.426 35.1878 106.46 35.1545 106.46 35.0879V32.7087C106.46 32.642 106.48 32.5887 106.52 32.5487C106.573 32.4954 106.633 32.4687 106.7 32.4687H108.939C109.005 32.4687 109.059 32.4954 109.099 32.5487C109.152 32.5887 109.179 32.642 109.179 32.7087V35.0879C109.179 35.1545 109.212 35.1878 109.279 35.1878H111.198C111.265 35.1878 111.318 35.2145 111.358 35.2678C111.411 35.3078 111.438 35.3611 111.438 35.4278V37.2072Z" fill="#1F2428"/>
<path d="M114.655 34.0282C114.201 34.0282 113.822 33.8816 113.515 33.5884C113.222 33.2818 113.075 32.9019 113.075 32.4487C113.075 31.9822 113.222 31.6024 113.515 31.3091C113.808 31.0159 114.188 30.8693 114.655 30.8693C115.121 30.8693 115.501 31.0159 115.794 31.3091C116.087 31.6024 116.234 31.9822 116.234 32.4487C116.234 32.9019 116.081 33.2818 115.774 33.5884C115.481 33.8816 115.108 34.0282 114.655 34.0282ZM113.455 45.4644C113.388 45.4644 113.328 45.4445 113.275 45.4045C113.235 45.3511 113.215 45.2912 113.215 45.2245V35.4078C113.215 35.3411 113.235 35.2878 113.275 35.2478C113.328 35.1945 113.388 35.1678 113.455 35.1678H115.794C115.861 35.1678 115.914 35.1945 115.954 35.2478C116.008 35.2878 116.034 35.3411 116.034 35.4078V45.2245C116.034 45.2912 116.008 45.3511 115.954 45.4045C115.914 45.4445 115.861 45.4644 115.794 45.4644H113.455Z" fill="#1F2428"/>
<path d="M122.77 45.6244C121.65 45.6244 120.69 45.3312 119.891 44.7447C119.091 44.1582 118.544 43.3585 118.251 42.3455C118.064 41.719 117.971 41.0392 117.971 40.3062C117.971 39.5197 118.064 38.8133 118.251 38.1868C118.558 37.2005 119.111 36.4274 119.911 35.8676C120.71 35.3078 121.67 35.0279 122.79 35.0279C123.883 35.0279 124.816 35.3078 125.589 35.8676C126.362 36.4141 126.908 37.1805 127.228 38.1669C127.441 38.8333 127.548 39.5331 127.548 40.2662C127.548 40.9859 127.455 41.659 127.268 42.2855C126.975 43.3252 126.428 44.1449 125.629 44.7447C124.842 45.3312 123.889 45.6244 122.77 45.6244ZM122.77 43.2052C123.209 43.2052 123.583 43.0719 123.889 42.8053C124.196 42.5387 124.416 42.1722 124.549 41.7057C124.656 41.2792 124.709 40.8126 124.709 40.3062C124.709 39.7463 124.656 39.2732 124.549 38.8866C124.402 38.4334 124.176 38.0802 123.869 37.827C123.563 37.5737 123.189 37.4471 122.75 37.4471C122.296 37.4471 121.917 37.5737 121.61 37.827C121.317 38.0802 121.103 38.4334 120.97 38.8866C120.864 39.2065 120.81 39.6797 120.81 40.3062C120.81 40.906 120.857 41.3725 120.95 41.7057C121.083 42.1722 121.303 42.5387 121.61 42.8053C121.93 43.0719 122.316 43.2052 122.77 43.2052Z" fill="#1F2428"/>
<path d="M134.718 35.0279C135.785 35.0279 136.644 35.3545 137.298 36.0076C137.951 36.6607 138.277 37.5471 138.277 38.6667V45.2245C138.277 45.2912 138.251 45.3511 138.197 45.4045C138.157 45.4445 138.104 45.4644 138.037 45.4644H135.698C135.631 45.4644 135.572 45.4445 135.518 45.4045C135.478 45.3511 135.458 45.2912 135.458 45.2245V39.2465C135.458 38.7133 135.305 38.2802 134.998 37.9469C134.705 37.6137 134.312 37.4471 133.819 37.4471C133.326 37.4471 132.926 37.6137 132.619 37.9469C132.326 38.2802 132.179 38.7133 132.179 39.2465V45.2245C132.179 45.2912 132.153 45.3511 132.099 45.4045C132.059 45.4445 132.006 45.4644 131.939 45.4644H129.6C129.533 45.4644 129.474 45.4445 129.42 45.4045C129.38 45.3511 129.36 45.2912 129.36 45.2245V35.4278C129.36 35.3611 129.38 35.3078 129.42 35.2678C129.474 35.2145 129.533 35.1878 129.6 35.1878H131.939C132.006 35.1878 132.059 35.2145 132.099 35.2678C132.153 35.3078 132.179 35.3611 132.179 35.4278V36.1275C132.179 36.1675 132.193 36.1942 132.219 36.2075C132.246 36.2208 132.266 36.2142 132.279 36.1875C132.826 35.4144 133.639 35.0279 134.718 35.0279Z" fill="#1F2428"/>
</svg>
