<svg width="44" height="28" viewBox="0 0 44 28" fill="none" xmlns="http://www.w3.org/2000/svg">
<rect width="44" height="28" rx="3" fill="#0F3560"/>
<path d="M25.633 20.4595H18.5508V7.73145H25.633V20.4595Z" fill="#FF5F00"/>
<path d="M19.0046 14.0945C19.0046 11.5125 20.2135 9.2126 22.096 7.73044C20.7193 6.64662 18.9819 5.99972 17.0937 5.99972C12.6236 5.99972 9 9.6238 9 14.0945C9 18.5651 12.6236 22.1892 17.0937 22.1892C18.9819 22.1892 20.7193 21.5423 22.096 20.4585C20.2135 18.9763 19.0046 16.6764 19.0046 14.0945Z" fill="#EB001B"/>
<path d="M35.1847 14.0945C35.1847 18.5651 31.5611 22.1892 27.0909 22.1892C25.2027 22.1892 23.4653 21.5423 22.0881 20.4585C23.9712 18.9763 25.1801 16.6764 25.1801 14.0945C25.1801 11.5125 23.9712 9.2126 22.0881 7.73044C23.4653 6.64662 25.2027 5.99972 27.0909 5.99972C31.5611 5.99972 35.1847 9.6238 35.1847 14.0945Z" fill="#F79E1B"/>
<path d="M15.0906 14.1458C15.0906 13.7922 15.3223 13.5017 15.7009 13.5017C16.0627 13.5017 16.3069 13.7797 16.3069 14.1458C16.3069 14.5119 16.0627 14.7898 15.7009 14.7898C15.3223 14.7898 15.0906 14.4993 15.0906 14.1458ZM16.7192 14.1458V13.1399H16.2819V13.3842C16.1431 13.203 15.9326 13.0894 15.6465 13.0894C15.0824 13.0894 14.6402 13.5316 14.6402 14.1458C14.6402 14.7604 15.0824 15.2021 15.6465 15.2021C15.9326 15.2021 16.1431 15.0885 16.2819 14.9073V15.1516H16.7192V14.1458ZM31.5001 14.1458C31.5001 13.7922 31.7318 13.5017 32.1104 13.5017C32.4727 13.5017 32.7164 13.7797 32.7164 14.1458C32.7164 14.5119 32.4727 14.7898 32.1104 14.7898C31.7318 14.7898 31.5001 14.4993 31.5001 14.1458ZM33.1292 14.1458V12.3321H32.6914V13.3842C32.5526 13.203 32.3421 13.0894 32.056 13.0894C31.4919 13.0894 31.0497 13.5316 31.0497 14.1458C31.0497 14.7604 31.4919 15.2021 32.056 15.2021C32.3421 15.2021 32.5526 15.0885 32.6914 14.9073V15.1516H33.1292V14.1458ZM22.1486 13.481C22.4304 13.481 22.6115 13.6578 22.6578 13.969H21.6139C21.6606 13.6785 21.8369 13.481 22.1486 13.481ZM22.1573 13.0894C21.5677 13.0894 21.1553 13.5186 21.1553 14.1458C21.1553 14.7855 21.5845 15.2021 22.1867 15.2021C22.4897 15.2021 22.7671 15.1265 23.0114 14.9203L22.797 14.5962C22.6284 14.7306 22.4136 14.8067 22.2117 14.8067C21.9299 14.8067 21.6732 14.6761 21.6101 14.3139H23.1039C23.1082 14.2594 23.1125 14.2045 23.1125 14.1458C23.1082 13.5186 22.7209 13.0894 22.1573 13.0894ZM27.4388 14.1458C27.4388 13.7922 27.6705 13.5017 28.0491 13.5017C28.4109 13.5017 28.6551 13.7797 28.6551 14.1458C28.6551 14.5119 28.4109 14.7898 28.0491 14.7898C27.6705 14.7898 27.4388 14.4993 27.4388 14.1458ZM29.0674 14.1458V13.1399H28.63V13.3842C28.4908 13.203 28.2808 13.0894 27.9947 13.0894C27.4306 13.0894 26.9884 13.5316 26.9884 14.1458C26.9884 14.7604 27.4306 15.2021 27.9947 15.2021C28.2808 15.2021 28.4908 15.0885 28.63 14.9073V15.1516H29.0674V14.1458ZM24.9686 14.1458C24.9686 14.7561 25.3934 15.2021 26.0418 15.2021C26.3448 15.2021 26.5466 15.1347 26.7653 14.9623L26.5553 14.6087C26.391 14.7267 26.2186 14.7898 26.0288 14.7898C25.6796 14.7855 25.4228 14.5331 25.4228 14.1458C25.4228 13.7585 25.6796 13.506 26.0288 13.5017C26.2186 13.5017 26.391 13.5648 26.5553 13.6828L26.7653 13.3293C26.5466 13.1568 26.3448 13.0894 26.0418 13.0894C25.3934 13.0894 24.9686 13.5354 24.9686 14.1458ZM30.608 13.0894C30.3555 13.0894 30.1913 13.2074 30.0776 13.3842V13.1399H29.644V15.1516H30.0819V14.0239C30.0819 13.691 30.225 13.506 30.5111 13.506C30.5998 13.506 30.6923 13.5186 30.7847 13.5566L30.9196 13.1443C30.8228 13.1062 30.6966 13.0894 30.608 13.0894ZM18.8826 13.2999C18.6721 13.1611 18.3821 13.0894 18.0623 13.0894C17.5526 13.0894 17.2246 13.3336 17.2246 13.7334C17.2246 14.0615 17.4688 14.2638 17.9187 14.3269L18.1254 14.3563C18.3653 14.39 18.4785 14.4531 18.4785 14.5668C18.4785 14.7224 18.3185 14.811 18.0199 14.811C17.7169 14.811 17.4982 14.7142 17.3508 14.6005L17.1446 14.9411C17.3845 15.1178 17.6875 15.2021 18.0155 15.2021C18.5965 15.2021 18.9332 14.9285 18.9332 14.5456C18.9332 14.192 18.6682 14.007 18.2304 13.9439L18.0242 13.9141C17.8349 13.889 17.6832 13.8514 17.6832 13.7165C17.6832 13.5691 17.8262 13.481 18.0661 13.481C18.3229 13.481 18.5714 13.5778 18.6933 13.6534L18.8826 13.2999ZM24.5263 13.0894C24.2739 13.0894 24.1097 13.2074 23.9965 13.3842V13.1399H23.5629V15.1516H24.0003V14.0239C24.0003 13.691 24.1434 13.506 24.4295 13.506C24.5182 13.506 24.6106 13.5186 24.7031 13.5566L24.838 13.1443C24.7412 13.1062 24.615 13.0894 24.5263 13.0894ZM20.7936 13.1399H20.0782V12.5296H19.636V13.1399H19.228V13.5398H19.636V14.4574C19.636 14.9242 19.8171 15.2021 20.3345 15.2021C20.5243 15.2021 20.743 15.1434 20.8817 15.0466L20.7555 14.6718C20.625 14.7474 20.4819 14.7855 20.3682 14.7855C20.1495 14.7855 20.0782 14.6506 20.0782 14.4488V13.5398H20.7936V13.1399ZM14.2534 15.1516V13.889C14.2534 13.4136 13.9504 13.0937 13.4619 13.0894C13.2052 13.085 12.9402 13.165 12.7548 13.4473C12.616 13.2242 12.3973 13.0894 12.09 13.0894C11.8752 13.0894 11.6651 13.1525 11.5009 13.388V13.1399H11.063V15.1516H11.5047V14.0364C11.5047 13.6872 11.6984 13.5017 11.9975 13.5017C12.288 13.5017 12.4349 13.691 12.4349 14.0321V15.1516H12.8771V14.0364C12.8771 13.6872 13.079 13.5017 13.3694 13.5017C13.6681 13.5017 13.8112 13.691 13.8112 14.0321V15.1516H14.2534Z" fill="white"/>
</svg>
