<svg width="44" height="28" viewBox="0 0 44 28" fill="none" xmlns="http://www.w3.org/2000/svg">
<rect width="44" height="28" rx="3" fill="#74B027"/>
<path fill-rule="evenodd" clip-rule="evenodd" d="M8.81939 22.1698L8 22.1689L8.00302 19.3164L10.9528 19.3194L10.9499 22.1719L10.1306 22.171L10.1329 19.8727L8.82181 19.8714L8.81939 22.1698Z" fill="white"/>
<path fill-rule="evenodd" clip-rule="evenodd" d="M12.0684 21.1339C12.069 20.5555 12.4315 20.4415 12.66 20.4417C12.8835 20.4419 13.2458 20.5568 13.2452 21.1352C13.2448 21.4938 13.0906 21.836 12.6585 21.8355C12.2165 21.835 12.068 21.4925 12.0684 21.1339ZM11.3492 20.1021L11.3462 22.926L12.1011 22.9267L12.1022 21.9607C12.3551 22.2306 12.7673 22.2511 12.8667 22.2512C13.5867 22.252 14.0292 21.8004 14.0298 21.1438C14.0305 20.4593 13.5941 20.0271 12.884 20.0264C12.7051 20.0261 12.3574 20.0544 12.0692 20.3517H12.0542L12.0596 20.1029L11.3492 20.1021Z" fill="white"/>
<path fill-rule="evenodd" clip-rule="evenodd" d="M15.9013 21.9282C15.6231 22.1848 15.3546 22.2538 15.0568 22.2536C14.2423 22.2527 14.2131 21.6496 14.2134 21.401L14.2147 20.1052L14.9697 20.1059L14.9684 21.3041C14.9679 21.7156 15.1118 21.8379 15.3898 21.8382C15.8666 21.8387 15.9018 21.4188 15.902 21.2682L15.9032 20.1069L16.6581 20.1077L16.6559 22.1777L15.9011 22.177L15.9013 21.9282Z" fill="white"/>
<path fill-rule="evenodd" clip-rule="evenodd" d="M17.7402 20.5245L18.1476 20.5249C18.361 20.5252 18.5447 20.5578 18.5446 20.7288C18.5443 20.9162 18.2564 20.9203 18.1323 20.9202L17.7399 20.9198L17.7402 20.5245ZM16.9861 20.1079L16.9839 22.1783L18.4837 22.1798C19.03 22.1803 19.4074 22.0742 19.4079 21.6509C19.4082 21.3249 19.2246 21.1821 18.8074 21.1082V21.096C19.0805 21.0596 19.3189 20.8928 19.3192 20.6116C19.3197 20.1103 18.724 20.1096 18.4906 20.1094L16.9861 20.1079ZM17.7395 21.3069L18.2015 21.3074C18.5589 21.3077 18.6332 21.4135 18.6331 21.552C18.6329 21.6416 18.5832 21.7639 18.2108 21.7635L17.739 21.763L17.7395 21.3069Z" fill="white"/>
<path fill-rule="evenodd" clip-rule="evenodd" d="M21.2355 21.327C21.235 21.7426 20.8675 21.8439 20.6836 21.8438C20.5448 21.8437 20.2964 21.7989 20.2966 21.6028C20.2968 21.3704 20.5799 21.3264 20.739 21.3061C21.0316 21.2654 21.0071 21.2776 21.2357 21.1964L21.2355 21.327ZM20.3618 20.78C20.3622 20.4742 20.6898 20.4502 20.8241 20.4503C20.9087 20.4505 21.2215 20.4549 21.2312 20.7235L21.2311 20.7809C21.2159 20.9847 21.0172 20.9434 20.4609 21.0124C20.004 21.0728 19.5223 21.1867 19.5217 21.659C19.5216 21.8305 19.5956 22.2584 20.4001 22.2593C20.7081 22.2595 21.0458 22.1825 21.2446 21.9786H21.2597L21.3241 22.1827L22.1184 22.1836V22.1471C21.9748 22.1182 21.9646 21.9793 21.9701 21.7556L21.986 20.8099C21.991 20.5699 21.9666 20.0359 20.8296 20.0347C20.5564 20.0344 19.6776 20.058 19.642 20.7793L20.3618 20.78Z" fill="white"/>
<path fill-rule="evenodd" clip-rule="evenodd" d="M22.0708 20.5287L22.0713 20.1128L24.4945 20.1153L24.494 20.5311L23.6596 20.5303L23.658 22.1848L22.9032 22.184L22.9048 20.5295L22.0708 20.5287Z" fill="white"/>
<path fill-rule="evenodd" clip-rule="evenodd" d="M25.4571 20.9477L26.1374 20.9484C26.3357 20.9486 26.733 20.9695 26.7327 21.3119C26.7323 21.581 26.4443 21.6332 26.1215 21.6329L25.4563 21.6322L25.4571 20.9477ZM25.4583 19.8883L27.3401 19.8903L27.3406 19.3361L24.639 19.3333L24.6362 22.1858L26.2949 22.1875C27.0996 22.1884 27.6162 21.9118 27.6168 21.3292C27.6177 20.4164 26.5848 20.3949 26.2969 20.3947L25.4576 20.3938L25.4583 19.8883Z" fill="white"/>
<path fill-rule="evenodd" clip-rule="evenodd" d="M29.4739 21.3352C29.4734 21.7508 29.106 21.8522 28.9223 21.8521C28.7832 21.8518 28.5353 21.807 28.5354 21.611C28.5357 21.3785 28.8186 21.3346 28.9775 21.3143C29.2704 21.2735 29.2457 21.2858 29.474 21.2047L29.4739 21.3352ZM28.6007 20.7883C28.601 20.4824 28.9286 20.4584 29.0625 20.4586C29.1474 20.4586 29.4602 20.4631 29.4699 20.7318L29.4698 20.7892C29.4546 20.9929 29.256 20.9515 28.6996 21.0206C28.2428 21.0811 27.7612 21.195 27.7607 21.6673C27.7604 21.8388 27.8344 22.2667 28.6389 22.2674C28.9469 22.2677 29.2846 22.1907 29.4833 21.9868H29.4985L29.5627 22.191L30.3573 22.1917V22.1552C30.2131 22.1263 30.2032 21.9875 30.2084 21.7637L30.2245 20.8181C30.2297 20.578 30.2052 20.0441 29.0679 20.043C28.795 20.0427 27.916 20.0661 27.8804 20.7876L28.6007 20.7883Z" fill="white"/>
<path fill-rule="evenodd" clip-rule="evenodd" d="M31.3008 22.1926L30.5461 22.1919L30.5483 20.1216L31.3029 20.1223L31.3021 20.901L32.2108 20.902L32.2118 20.1234L32.9668 20.1241L32.9644 22.1943L32.2096 22.1936L32.2104 21.3176L31.3017 21.3166L31.3008 22.1926Z" fill="white"/>
<path fill-rule="evenodd" clip-rule="evenodd" d="M34.8734 20.1259L35.7129 20.1268L34.6739 21.0956L35.7599 22.1973L34.8761 22.1965L34.0627 21.2907H34.048L34.0472 22.1956L33.292 22.1948L33.2944 20.1245L34.0493 20.1252L34.0484 20.9565H34.0629L34.8734 20.1259Z" fill="white"/>
<path fill-rule="evenodd" clip-rule="evenodd" d="M16.3352 17.2753L20.8139 17.2797L20.8185 12.8713L16.3397 12.8669L16.3352 17.2753Z" fill="white"/>
<path opacity="0.75" fill-rule="evenodd" clip-rule="evenodd" d="M16.3526 6.00024L16.3469 11.488L17.5309 11.4891C20.6469 11.4923 22.2253 13.0498 22.222 16.1176L22.2208 17.2826L27.7945 17.2882L27.8064 6.01175L16.3526 6.00024ZM25.436 8.34061L25.4291 14.9548L24.5153 14.954C24.1245 11.6827 22.0387 9.62538 18.717 9.23422L18.7179 8.33392L25.436 8.34061Z" fill="white"/>
</svg>
