<svg width="44" height="28" viewBox="0 0 44 28" fill="none" xmlns="http://www.w3.org/2000/svg">
<rect width="44" height="28" rx="3" fill="#2C2C2C"/>
<g clip-path="url(#clip0_19_4)">
<path fill-rule="evenodd" clip-rule="evenodd" d="M34.4694 16.409L34.389 16.3428C34.1939 16.1827 34.1594 15.8902 34.3374 15.7025L36.4268 13.4065C36.5933 13.2189 36.8975 13.1857 37.0926 13.3568L37.173 13.4231C37.3682 13.5831 37.4026 13.8756 37.2247 14.0633L35.1353 16.3593C34.9688 16.547 34.676 16.569 34.4694 16.409Z" fill="url(#paint0_linear_19_4)"/>
<path opacity="0.4" fill-rule="evenodd" clip-rule="evenodd" d="M36.1456 13.8039L36.1054 13.7598L35.7839 14.113L35.8184 14.1516C36.3694 14.6815 36.1341 15.2168 36.0078 15.4045L36.0537 15.3548C36.1283 15.272 36.2431 15.1451 36.3637 15.0071C36.49 14.7974 36.668 14.3007 36.1456 13.8039Z" fill="url(#paint1_linear_19_4)"/>
<path opacity="0.4" fill-rule="evenodd" clip-rule="evenodd" d="M36.8343 14.4936L36.9204 14.3998C36.9261 14.3888 36.9376 14.3777 36.9434 14.3667C36.8515 14.466 36.7539 14.5709 36.6621 14.6758C36.731 14.604 36.7884 14.5433 36.8343 14.4936Z" fill="url(#paint2_radial_19_4)"/>
<path fill-rule="evenodd" clip-rule="evenodd" d="M37.2361 13.4782L35.1467 11.1821C34.9802 10.9945 34.676 10.9614 34.4809 11.1325L34.4005 11.1987C34.2053 11.3588 34.1709 11.6513 34.3488 11.8389L36.111 13.7596L36.1512 13.8038C36.6735 14.3061 36.4956 14.8028 36.3636 15.0125C36.4669 14.8966 36.5702 14.7807 36.6678 14.6758C36.7596 14.571 36.8572 14.4661 36.9491 14.3668C37.0409 14.2674 37.127 14.1736 37.1844 14.1129C37.3853 13.9252 37.414 13.6658 37.2361 13.4782Z" fill="url(#paint3_linear_19_4)"/>
<path fill-rule="evenodd" clip-rule="evenodd" d="M37.1212 16.409L37.0409 16.3428C36.8457 16.1827 36.8113 15.8902 36.9892 15.7025L39.0787 13.4065C39.2451 13.2189 39.5493 13.1857 39.7445 13.3568L39.8249 13.4231C40.02 13.5831 40.0545 13.8756 39.8765 14.0633L37.7872 16.3593C37.6206 16.547 37.3279 16.569 37.1212 16.409Z" fill="url(#paint4_linear_19_4)"/>
<path opacity="0.4" fill-rule="evenodd" clip-rule="evenodd" d="M38.8204 13.7817L38.7802 13.7375L38.4587 14.0908L38.4932 14.1294C39.0442 14.6593 38.8089 15.1946 38.6826 15.3823L38.7285 15.3326C38.8031 15.2498 38.9179 15.1229 39.0385 14.9849C39.1648 14.7752 39.3427 14.2784 38.8204 13.7817Z" fill="url(#paint5_linear_19_4)"/>
<path opacity="0.4" fill-rule="evenodd" clip-rule="evenodd" d="M39.4805 14.4936L39.5666 14.3998C39.5724 14.3888 39.5839 14.3777 39.5896 14.3667C39.4978 14.466 39.4002 14.5709 39.3083 14.6758C39.3772 14.604 39.4404 14.5433 39.4805 14.4936Z" fill="url(#paint6_radial_19_4)"/>
<path fill-rule="evenodd" clip-rule="evenodd" d="M39.8826 13.4782L37.7932 11.1821C37.6267 10.9945 37.3225 10.9614 37.1273 11.1325L37.047 11.1987C36.8518 11.3588 36.8174 11.6513 36.9953 11.8389L38.7575 13.7596L38.7977 13.8038C39.32 14.3061 39.1421 14.8028 39.0101 15.0125C39.1134 14.8966 39.2167 14.7807 39.3143 14.6758C39.4061 14.571 39.5037 14.4661 39.5955 14.3668C39.6874 14.2674 39.7736 14.1736 39.831 14.1129C40.0319 13.9252 40.0606 13.6658 39.8826 13.4782Z" fill="url(#paint7_linear_19_4)"/>
<path fill-rule="evenodd" clip-rule="evenodd" d="M5.12628 16.3867C5.04592 16.3095 5 16.1936 5 16.0501V11.5077C5 11.3587 5.04592 11.2428 5.1435 11.149C5.24108 11.0551 5.36162 11.011 5.5166 11.011C5.67158 11.011 5.80935 11.0551 5.90119 11.149C5.99877 11.2428 6.04469 11.3587 6.04469 11.5077V15.6968H8.30052C8.62196 15.6968 8.78842 15.8348 8.78842 16.1053C8.78842 16.3757 8.62196 16.5137 8.30052 16.5137H5.4879C5.33292 16.5137 5.21238 16.4695 5.12628 16.3867Z" fill="white"/>
<path fill-rule="evenodd" clip-rule="evenodd" d="M9.60346 16.42C9.50588 16.3262 9.45996 16.2048 9.45996 16.0502V11.5023C9.45996 11.3533 9.50588 11.2374 9.60346 11.1436C9.70104 11.0498 9.82158 11.0056 9.97656 11.0056C10.1315 11.0056 10.2693 11.0498 10.3611 11.1436C10.4587 11.2374 10.5046 11.3533 10.5046 11.5023V16.0502C10.5046 16.1992 10.4587 16.3262 10.3611 16.42C10.2636 16.5138 10.1373 16.558 9.97656 16.558C9.82732 16.558 9.70104 16.5138 9.60346 16.42Z" fill="white"/>
<path fill-rule="evenodd" clip-rule="evenodd" d="M16.4744 17.5458C16.4744 17.452 16.44 17.3637 16.3826 17.2699L16.0956 16.8559C15.9291 16.5965 15.7282 16.4199 15.4814 16.3426C15.9578 16.1384 16.3252 15.8183 16.5777 15.3768C16.836 14.9408 16.9623 14.4054 16.9623 13.7927C16.9623 13.2243 16.8532 12.7275 16.6351 12.3081C16.417 11.8941 16.107 11.5685 15.6995 11.3367C15.2977 11.1159 14.8155 11 14.2702 11C13.7135 11 13.237 11.1049 12.8294 11.3367C12.4276 11.5685 12.1119 11.8886 11.8938 12.3081C11.6815 12.733 11.5667 13.2243 11.5667 13.7927C11.5667 14.3557 11.6757 14.8524 11.8938 15.2774C12.1119 15.6914 12.4219 16.017 12.8294 16.2488C13.237 16.4696 13.7135 16.5855 14.2702 16.5855C14.4654 16.5855 14.6204 16.6186 14.7409 16.6738C14.8615 16.729 14.959 16.8173 15.0337 16.9387L15.5043 17.6893C15.5617 17.7722 15.6364 17.8384 15.7167 17.8825C15.8028 17.9267 15.8947 17.9488 15.9922 17.9488C16.1185 17.9488 16.2333 17.9046 16.3309 17.8329C16.4285 17.7611 16.4744 17.6617 16.4744 17.5458ZM15.9234 13.7817C15.9234 14.4219 15.7741 14.9187 15.4814 15.2664C15.1886 15.6141 14.7811 15.7852 14.2588 15.7852C13.7364 15.7852 13.3231 15.6141 13.0304 15.2664C12.7377 14.9187 12.5884 14.433 12.5884 13.7817C12.5884 13.1304 12.7377 12.6447 13.0304 12.297C13.3231 11.9548 13.7307 11.7837 14.2588 11.7837C14.7868 11.7837 15.1886 11.9493 15.4814 12.297C15.7741 12.6447 15.9234 13.1304 15.9234 13.7817Z" fill="white"/>
<path fill-rule="evenodd" clip-rule="evenodd" d="M18.0815 16.05C18.0815 16.2046 18.1275 16.326 18.225 16.4198C18.3111 16.5136 18.4432 16.5578 18.5981 16.5633C18.7589 16.5633 18.8851 16.5191 18.9827 16.4253C19.0803 16.337 19.1262 16.2156 19.1262 16.0555V14.3887H20.567C21.1754 14.3887 21.6461 14.2452 21.9847 13.9472C22.3234 13.6546 22.4956 13.2407 22.4956 12.7164C22.4956 12.192 22.3234 11.7781 21.9847 11.4911C21.6461 11.1931 21.1754 11.0496 20.567 11.0496H18.5867C18.4317 11.0496 18.3111 11.0937 18.2193 11.171C18.1275 11.2538 18.0815 11.3697 18.0815 11.5187V16.05ZM21.5083 12.7274C21.5083 13.3235 21.1467 13.6271 20.4349 13.6271L19.1262 13.6215V11.8278H20.4349C21.1467 11.8278 21.5083 12.1313 21.5083 12.7274Z" fill="white"/>
<path fill-rule="evenodd" clip-rule="evenodd" d="M27.8396 16.4199C27.9371 16.3316 27.9888 16.2323 27.9888 16.1164C27.9888 16.0446 27.9716 15.9839 27.9486 15.9121L25.7158 11.3146C25.6641 11.2097 25.5895 11.1325 25.4919 11.0773C25.3943 11.0276 25.291 11 25.1762 11C25.0614 11 24.9581 11.0221 24.8605 11.0773C24.7572 11.1325 24.6826 11.2153 24.6366 11.3146L22.4094 15.9121C22.3807 15.9784 22.3635 16.0501 22.3635 16.1164C22.3635 16.2378 22.4094 16.3426 22.5128 16.4199C22.6103 16.4972 22.7309 16.5413 22.8514 16.5413C22.9433 16.5413 23.0236 16.5193 23.0982 16.4751C23.1729 16.431 23.2303 16.3647 23.2762 16.2709L23.7642 15.2333H26.5882L27.0761 16.2709C27.1163 16.3592 27.1795 16.431 27.2541 16.4751C27.3287 16.5193 27.4148 16.5413 27.4952 16.5413C27.6272 16.5413 27.742 16.4972 27.8396 16.4199ZM26.2438 14.4606H24.1142L25.1762 12.1646L26.2438 14.4606Z" fill="white"/>
<path fill-rule="evenodd" clip-rule="evenodd" d="M32.0069 11.0111C32.1274 11.0111 32.2365 11.0553 32.334 11.1491C32.4316 11.2429 32.4775 11.3423 32.4775 11.4748C32.4775 11.5741 32.4374 11.679 32.357 11.7728L30.5259 13.9198V16.0668C30.5259 16.2268 30.48 16.3483 30.3824 16.4421C30.2849 16.5359 30.1643 16.5746 30.0151 16.5746C29.8601 16.5746 29.7281 16.5304 29.6305 16.4421C29.5329 16.3538 29.487 16.2324 29.487 16.0668V13.9198L27.6674 11.7673C27.5871 11.6734 27.5469 11.5741 27.5469 11.4692C27.5469 11.3478 27.5928 11.2374 27.6904 11.1436C27.788 11.0498 27.9028 11.0056 28.0176 11.0056C28.1553 11.0056 28.2644 11.0608 28.362 11.1767L30.0093 13.1416L31.651 11.1767C31.7486 11.0663 31.8691 11.0111 32.0069 11.0111Z" fill="white"/>
</g>
<defs>
<linearGradient id="paint0_linear_19_4" x1="35.122" y1="17.1256" x2="37.9773" y2="15.6858" gradientUnits="userSpaceOnUse">
<stop stop-color="#1FADC3"/>
<stop offset="0.7072" stop-color="#36B98F"/>
</linearGradient>
<linearGradient id="paint1_linear_19_4" x1="36.1403" y1="14.9544" x2="36.6814" y2="14.8725" gradientUnits="userSpaceOnUse">
<stop stop-color="#123F06" stop-opacity="0.01"/>
<stop offset="1" stop-color="#123F06"/>
</linearGradient>
<radialGradient id="paint2_radial_19_4" cx="0" cy="0" r="1" gradientUnits="userSpaceOnUse" gradientTransform="translate(35.6829 14.7806) scale(1.39953 1.53794)">
<stop offset="0.4185" stop-color="#123F06" stop-opacity="0.01"/>
<stop offset="1" stop-color="#123F06"/>
</radialGradient>
<linearGradient id="paint3_linear_19_4" x1="33.1388" y1="14.0634" x2="36.6251" y2="15.3164" gradientUnits="userSpaceOnUse">
<stop stop-color="#9FDB57"/>
<stop offset="1" stop-color="#71CA5E"/>
</linearGradient>
<linearGradient id="paint4_linear_19_4" x1="37.7713" y1="17.127" x2="40.6267" y2="15.6872" gradientUnits="userSpaceOnUse">
<stop stop-color="#1FADC3"/>
<stop offset="0.7072" stop-color="#36B98F"/>
</linearGradient>
<linearGradient id="paint5_linear_19_4" x1="38.815" y1="14.9322" x2="39.3561" y2="14.8503" gradientUnits="userSpaceOnUse">
<stop stop-color="#123F06" stop-opacity="0.01"/>
<stop offset="1" stop-color="#123F06"/>
</linearGradient>
<radialGradient id="paint6_radial_19_4" cx="0" cy="0" r="1" gradientUnits="userSpaceOnUse" gradientTransform="translate(38.3316 14.7806) scale(1.39953 1.53794)">
<stop offset="0.4185" stop-color="#123F06" stop-opacity="0.01"/>
<stop offset="1" stop-color="#123F06"/>
</radialGradient>
<linearGradient id="paint7_linear_19_4" x1="35.7871" y1="14.0645" x2="39.2733" y2="15.3174" gradientUnits="userSpaceOnUse">
<stop stop-color="#9FDB57"/>
<stop offset="1" stop-color="#71CA5E"/>
</linearGradient>
<clipPath id="clip0_19_4">
<rect width="35" height="7" fill="white" transform="translate(5 11)"/>
</clipPath>
</defs>
</svg>
