<svg width="44" height="28" viewBox="0 0 44 28" fill="none" xmlns="http://www.w3.org/2000/svg">
<rect width="44" height="28" rx="3" fill="#00579F"/>
<path d="M20.2666 17.6873H18.1604L19.4778 10.1367H21.5838L20.2666 17.6873Z" fill="white"/>
<path d="M27.9017 10.3215C27.4863 10.1687 26.8274 10 26.0126 10C23.9327 10 22.468 11.0281 22.4591 12.498C22.4418 13.5825 23.5077 14.1848 24.3049 14.5464C25.1198 14.9159 25.3968 15.1571 25.3968 15.4865C25.3885 15.9923 24.7383 16.2255 24.132 16.2255C23.2911 16.2255 22.8405 16.1053 22.1558 15.8238L21.8785 15.7032L21.5837 17.3981C22.0777 17.6068 22.9878 17.7919 23.9327 17.8C26.1427 17.8 27.5814 16.7878 27.5985 15.2214C27.6069 14.3619 27.044 13.7032 25.8305 13.1651C25.0939 12.8196 24.6428 12.5866 24.6428 12.2331C24.6514 11.9118 25.0243 11.5826 25.8559 11.5826C26.5406 11.5665 27.0437 11.7191 27.4248 11.8717L27.6153 11.9519L27.9017 10.3215Z" fill="white"/>
<path d="M30.701 15.0124C30.8744 14.5786 31.5419 12.8998 31.5419 12.8998C31.5331 12.9159 31.715 12.458 31.819 12.1769L31.9662 12.8275C31.9662 12.8275 32.365 14.6349 32.4516 15.0124C32.1225 15.0124 31.117 15.0124 30.701 15.0124ZM33.3008 10.1367H31.6717C31.1693 10.1367 30.7876 10.2732 30.5708 10.7632L27.4424 17.6872H29.6523C29.6523 17.6872 30.0162 16.7553 30.0944 16.5546C30.3368 16.5546 32.4866 16.5546 32.7985 16.5546C32.859 16.8197 33.0498 17.6872 33.0498 17.6872H35L33.3008 10.1367Z" fill="white"/>
<path d="M16.4014 10.1367L14.3387 15.2855L14.1134 14.2413C13.732 13.0364 12.536 11.7273 11.2014 11.0763L13.0907 17.6793H15.318L18.6285 10.1367H16.4014Z" fill="white"/>
<path d="M12.4233 10.1367H9.03467L9 10.2893C11.6434 10.9159 13.394 12.4262 14.1133 14.2416L13.3766 10.7714C13.2553 10.2892 12.8826 10.1526 12.4233 10.1367Z" fill="#FAA61A"/>
</svg>
