<svg width="44" height="28" viewBox="0 0 44 28" fill="none" xmlns="http://www.w3.org/2000/svg">
<rect width="44" height="28" rx="3" fill="#F7931A"/>
<path d="M12.9246 18.0026C13.1931 18.0026 13.4251 18.0507 13.6201 18.1451C13.8159 18.2406 13.9776 18.3691 14.1072 18.5307C14.2351 18.6932 14.3303 18.8831 14.3918 19.1007C14.4529 19.3189 14.4835 19.5535 14.4835 19.8047C14.4835 20.1904 14.4128 20.5549 14.2701 20.8985C14.1274 21.2425 13.9338 21.541 13.6875 21.7955C13.4414 22.0498 13.1509 22.2502 12.8158 22.3983C12.4813 22.5465 12.1175 22.6206 11.727 22.6206C11.6765 22.6206 11.5877 22.6191 11.4623 22.6165C11.3369 22.614 11.1927 22.601 11.0313 22.5792C10.8688 22.5565 10.697 22.523 10.5156 22.4781C10.3343 22.434 10.1622 22.3722 10 22.2938L11.45 16.2013L12.7486 16L12.2295 18.162C12.3406 18.1119 12.4526 18.0731 12.5643 18.0449C12.6762 18.017 12.7963 18.0026 12.9246 18.0026ZM11.8352 21.5903C12.0308 21.5903 12.2151 21.5422 12.3882 21.4477C12.5619 21.3531 12.7117 21.2255 12.8372 21.0664C12.9628 20.9066 13.0621 20.7267 13.1345 20.5256C13.207 20.3246 13.2436 20.1148 13.2436 19.8966C13.2436 19.6284 13.1988 19.4193 13.1095 19.2681C13.0202 19.1176 12.8549 19.0418 12.615 19.0418C12.5363 19.0418 12.435 19.0568 12.3094 19.0836C12.1833 19.1121 12.0705 19.1712 11.9694 19.2601L11.4166 21.5561C11.45 21.562 11.4795 21.5676 11.5046 21.5728C11.5292 21.5785 11.5564 21.5826 11.5836 21.5854C11.6122 21.5886 11.645 21.5902 11.6847 21.5902C11.7243 21.5902 11.7739 21.5903 11.8352 21.5903Z" fill="white"/>
<path d="M15.8303 22.5043H14.5898L15.6374 18.0964H16.8863L15.8303 22.5043ZM16.4339 17.5593C16.2607 17.5593 16.1038 17.5078 15.9645 17.4045C15.8241 17.3019 15.7545 17.1438 15.7545 16.9309C15.7545 16.8137 15.7783 16.7038 15.8255 16.6002C15.8734 16.4967 15.936 16.4076 16.0145 16.3318C16.0928 16.2567 16.1835 16.1967 16.2866 16.1515C16.3903 16.107 16.5006 16.0847 16.6182 16.0847C16.7912 16.0847 16.9473 16.1363 17.0871 16.2395C17.2264 16.3433 17.2965 16.5013 17.2965 16.7132C17.2965 16.8307 17.2728 16.941 17.2252 17.0445C17.1779 17.148 17.1153 17.2371 17.0368 17.3128C16.9591 17.3881 16.8676 17.4479 16.7647 17.4927C16.6609 17.5379 16.551 17.5593 16.4339 17.5593Z" fill="white"/>
<path d="M17.9735 16.9981L19.2727 16.7969L18.9537 18.0962H20.3451L20.0938 19.1184H18.7108L18.3424 20.6602C18.3085 20.7887 18.2892 20.9088 18.2839 21.0203C18.2777 21.1324 18.2919 21.2286 18.3255 21.3097C18.3588 21.3909 18.4187 21.4535 18.5056 21.4978C18.5921 21.5428 18.716 21.5655 18.8785 21.5655C19.0123 21.5655 19.1426 21.5527 19.2687 21.5275C19.394 21.5027 19.521 21.4681 19.6495 21.4229L19.742 22.3786C19.5744 22.4401 19.3929 22.493 19.1973 22.5375C19.0014 22.5826 18.7695 22.6043 18.5015 22.6043C18.1161 22.6043 17.8174 22.5471 17.6045 22.4332C17.392 22.3184 17.2417 22.1616 17.1518 21.9631C17.0631 21.7654 17.0235 21.5374 17.0345 21.2806C17.046 21.0231 17.0848 20.7525 17.1518 20.4675L17.9735 16.9981Z" fill="white"/>
<path d="M20.2903 20.7437C20.2903 20.364 20.3518 20.006 20.4746 19.6708C20.5972 19.3353 20.7738 19.0419 21.0031 18.7902C21.2314 18.5396 21.5097 18.3412 21.8372 18.1955C22.1632 18.0506 22.5282 17.9775 22.9304 17.9775C23.1822 17.9775 23.407 18.0013 23.6049 18.049C23.8036 18.0972 23.9833 18.1594 24.1459 18.2374L23.7181 19.2101C23.6063 19.1648 23.4903 19.1248 23.3704 19.0886C23.2503 19.0517 23.1038 19.0339 22.9305 19.0339C22.5165 19.0339 22.1892 19.1766 21.9456 19.461C21.7029 19.7457 21.5807 20.1289 21.5807 20.6096C21.5807 20.8944 21.6422 21.1248 21.7655 21.301C21.8882 21.4773 22.115 21.5649 22.4441 21.5649C22.6066 21.5649 22.7634 21.5479 22.9135 21.5148C23.0648 21.4813 23.1984 21.4391 23.3161 21.3892L23.4087 22.3863C23.2518 22.4472 23.0788 22.5021 22.889 22.5502C22.6988 22.5967 22.4724 22.6208 22.2098 22.6208C21.8633 22.6208 21.5699 22.5701 21.33 22.4703C21.0899 22.3688 20.8915 22.2342 20.7352 22.0637C20.5782 21.8927 20.4654 21.6931 20.3956 21.464C20.3259 21.2351 20.2903 20.9946 20.2903 20.7437Z" fill="white"/>
<path d="M25.8006 22.6208C25.5046 22.6208 25.2474 22.5757 25.0293 22.4864C24.8118 22.3971 24.6316 22.2718 24.4891 22.1093C24.3464 21.9477 24.2396 21.7561 24.1664 21.5354C24.0933 21.3148 24.0581 21.0705 24.0581 20.8028C24.0581 20.467 24.112 20.1313 24.221 19.7965C24.3294 19.461 24.4903 19.1596 24.7033 18.8917C24.9146 18.6234 25.1753 18.404 25.4822 18.2329C25.7888 18.063 26.1415 17.9775 26.5376 17.9775C26.8283 17.9775 27.0841 18.0228 27.3052 18.1121C27.5253 18.2012 27.7066 18.3275 27.8499 18.4891C27.9917 18.6516 28.0994 18.8423 28.1719 19.0634C28.2448 19.2836 28.2808 19.5285 28.2808 19.7964C28.2808 20.1312 28.2276 20.4669 28.1221 20.8027C28.0164 21.1368 27.8597 21.439 27.6527 21.7075C27.4462 21.9754 27.1879 22.1947 26.8776 22.365C26.5678 22.5353 26.2085 22.6208 25.8006 22.6208ZM26.4206 19.034C26.2367 19.034 26.0741 19.0874 25.9349 19.1928C25.7952 19.2995 25.6779 19.4336 25.5833 19.5954C25.4877 19.7578 25.4168 19.935 25.3689 20.1276C25.3214 20.3205 25.2981 20.503 25.2981 20.6763C25.2981 20.956 25.3432 21.1738 25.4319 21.3306C25.5218 21.4866 25.6834 21.565 25.9182 21.565C26.1027 21.565 26.2644 21.512 26.4044 21.4054C26.5433 21.2996 26.6607 21.1654 26.7561 21.0033C26.851 20.8417 26.9225 20.664 26.9705 20.4711C27.0173 20.2787 27.0412 20.0953 27.0412 19.9222C27.0412 19.6433 26.9963 19.4249 26.9068 19.2684C26.8174 19.1124 26.6552 19.034 26.4206 19.034Z" fill="white"/>
<path d="M29.6287 22.5043H28.3872L29.4347 18.0964H30.6843L29.6287 22.5043ZM30.2313 17.5593C30.0583 17.5593 29.9014 17.5078 29.7624 17.4045C29.6227 17.3019 29.5525 17.1438 29.5525 16.9309C29.5525 16.8137 29.5766 16.7038 29.6239 16.6002C29.6712 16.4967 29.7342 16.4076 29.8126 16.3318C29.8906 16.2567 29.9822 16.1967 30.085 16.1515C30.1881 16.107 30.2984 16.0847 30.4155 16.0847C30.589 16.0847 30.7456 16.1363 30.8851 16.2395C31.0247 16.3433 31.0952 16.5013 31.0952 16.7132C31.0952 16.8307 31.0701 16.941 31.0233 17.0445C30.9764 17.148 30.9134 17.2371 30.8352 17.3128C30.7566 17.3881 30.6662 17.4479 30.5631 17.4927C30.4592 17.5379 30.3491 17.5593 30.2313 17.5593Z" fill="white"/>
<path d="M31.582 18.2967C31.6762 18.2692 31.7813 18.2361 31.8957 18.2C32.0104 18.164 32.1386 18.1305 32.2818 18.1003C32.4235 18.0691 32.5834 18.0439 32.7592 18.0243C32.935 18.0044 33.1354 17.9946 33.3579 17.9946C34.0121 17.9946 34.4631 18.1851 34.7121 18.565C34.9609 18.9449 35.0039 19.4648 34.8425 20.1237L34.2719 22.5038H33.0233L33.5763 20.1738C33.61 20.0283 33.6365 19.8877 33.6561 19.7503C33.6758 19.6141 33.6747 19.4941 33.6516 19.3902C33.6296 19.2875 33.5776 19.2035 33.497 19.1384C33.4152 19.0743 33.2915 19.0422 33.1238 19.0422C32.962 19.0422 32.7975 19.0595 32.6295 19.0931L31.8165 22.5037H30.5674L31.582 18.2967Z" fill="white"/>
<path d="M28.1069 11.2178C27.3306 14.3312 24.1768 16.2261 21.0626 15.4496C17.9497 14.6734 16.0546 11.5198 16.8313 8.40652C17.6073 5.29268 20.7611 3.39768 23.8744 4.17392C26.9884 4.95015 28.8832 8.10412 28.1069 11.2178Z" fill="white"/>
<path d="M25.032 8.98363C25.1477 8.21031 24.5588 7.79458 23.7536 7.51725L24.0148 6.46968L23.3771 6.31077L23.1228 7.33073C22.9551 7.28896 22.7829 7.24955 22.6118 7.2105L22.868 6.18382L22.2306 6.0249L21.9692 7.07211C21.8304 7.04051 21.6942 7.00927 21.562 6.9764L21.5627 6.97313L20.6832 6.75355L20.5136 7.43462C20.5136 7.43462 20.9867 7.54304 20.9767 7.54976C21.235 7.61424 21.2817 7.78514 21.2739 7.92063L20.9764 9.11404C20.9942 9.11858 21.0172 9.12511 21.0427 9.13529C21.0214 9.13002 20.9987 9.12421 20.9753 9.11858L20.5582 10.7904C20.5266 10.8688 20.4465 10.9865 20.266 10.9418C20.2723 10.9511 19.8024 10.8261 19.8024 10.8261L19.4858 11.5561L20.3157 11.7629C20.4701 11.8016 20.6214 11.8421 20.7704 11.8803L20.5065 12.9398L21.1435 13.0987L21.4049 12.0504C21.5789 12.0977 21.7478 12.1412 21.9131 12.1823L21.6526 13.2257L22.2903 13.3846L22.5543 12.327C23.6417 12.5328 24.4595 12.4498 24.8037 11.4663C25.081 10.6745 24.7899 10.2177 24.2177 9.91987C24.6344 9.8238 24.9483 9.54974 25.032 8.98363ZM23.5749 11.0267C23.3778 11.8185 22.0444 11.3904 21.6121 11.2831L21.9623 9.87937C22.3946 9.98725 23.7809 10.2008 23.5749 11.0267ZM23.7722 8.97219C23.5923 9.69249 22.4825 9.32653 22.1225 9.23681L22.44 7.96367C22.8 8.05339 23.9594 8.22084 23.7722 8.97219Z" fill="#F7931A"/>
</svg>
