<svg width="60" height="60" viewBox="0 0 60 60" fill="none" xmlns="http://www.w3.org/2000/svg">
<rect width="60" height="60" rx="8" fill="#D0F1FD"/>
<path d="M24 30C24 28.0222 24.5865 26.0888 25.6853 24.4443C26.7841 22.7998 28.3459 21.5181 30.1732 20.7612C32.0004 20.0043 34.0111 19.8063 35.9509 20.1922C37.8907 20.578 39.6725 21.5304 41.0711 22.9289C42.4696 24.3275 43.422 26.1093 43.8079 28.0491C44.1937 29.9889 43.9957 31.9996 43.2388 33.8268C42.4819 35.6541 41.2002 37.2159 39.5557 38.3147C37.9112 39.4135 35.9778 40 34 40H23C21.1435 40 19.363 39.2625 18.0503 37.9498C16.7375 36.637 16 34.8565 16 33C16 31.1435 16.7375 29.363 18.0503 28.0503C19.363 26.7375 21.1435 26 23 26C23.5857 25.9998 24.1692 26.0711 24.7375 26.2125" stroke="#206E8D" stroke-width="2" stroke-linecap="round" stroke-linejoin="round"/>
<path d="M38 28.5L32 34.5L29 31.5" stroke="#206E8D" stroke-width="2" stroke-linecap="round" stroke-linejoin="round"/>
</svg>
