<svg width="60" height="60" viewBox="0 0 60 60" fill="none" xmlns="http://www.w3.org/2000/svg">
<rect width="60" height="60" rx="8" fill="#DEFDD0"/>
<path d="M42.1875 30.0001H38.1875C37.6571 30.0001 37.1484 30.2108 36.7733 30.5858C36.3982 30.9609 36.1875 31.4696 36.1875 32.0001V37C36.1875 37.5305 36.3982 38.0392 36.7733 38.4143C37.1484 38.7893 37.6571 39 38.1875 39H40.1875C40.7179 39 41.2266 38.7893 41.6017 38.4143C41.9768 38.0392 42.1875 37.5305 42.1875 37V30.0001ZM42.1875 30.0001C42.1876 28.4157 41.8739 26.8471 41.2646 25.3846C40.6553 23.9222 39.7624 22.5948 38.6375 21.4792C37.5126 20.3636 36.1779 19.4818 34.7104 18.8846C33.2429 18.2875 31.6718 17.9868 30.0875 18.0001C28.5043 17.9885 26.9344 18.2904 25.4684 18.8883C24.0024 19.4861 22.6692 20.3682 21.5456 21.4837C20.422 22.5991 19.5303 23.9259 18.9217 25.3875C18.3132 26.8492 18 28.4168 18 30.0001V37C18 37.5305 18.2107 38.0392 18.5858 38.4143C18.9609 38.7893 19.4696 39 20 39H22C22.5304 39 23.0391 38.7893 23.4142 38.4143C23.7893 38.0392 24 37.5305 24 37V32.0001C24 31.4696 23.7893 30.9609 23.4142 30.5858C23.0391 30.2108 22.5304 30.0001 22 30.0001H18" stroke="#357419" stroke-width="2" stroke-linecap="round" stroke-linejoin="round"/>
<path d="M42.1875 37V40C42.1875 41.0609 41.7661 42.0783 41.0159 42.8284C40.2658 43.5786 39.2484 44 38.1875 44H31" stroke="#357419" stroke-width="2" stroke-linecap="round" stroke-linejoin="round"/>
</svg>
