<svg width="60" height="60" viewBox="0 0 60 60" fill="none" xmlns="http://www.w3.org/2000/svg">
<rect width="60" height="60" rx="8" fill="#FDE5D0"/>
<path d="M25 34C28.5899 34 31.5 31.0899 31.5 27.5C31.5 23.9101 28.5899 21 25 21C21.4101 21 18.5 23.9101 18.5 27.5C18.5 31.0899 21.4101 34 25 34Z" stroke="#814410" stroke-width="2" stroke-miterlimit="10"/>
<path d="M33.425 21.2375C33.9996 21.0817 34.5922 21.0018 35.1875 21C36.9115 21 38.5648 21.6848 39.7837 22.9038C41.0027 24.1228 41.6875 25.7761 41.6875 27.5C41.6875 29.2239 41.0027 30.8772 39.7837 32.0962C38.5648 33.3152 36.9115 34 35.1875 34" stroke="#814410" stroke-width="2" stroke-linecap="round" stroke-linejoin="round"/>
<path d="M16 38.675C17.0149 37.2307 18.3625 36.0519 19.929 35.2381C21.4955 34.4243 23.2348 33.9995 25 33.9995C26.7652 33.9995 28.5045 34.4243 30.071 35.2381C31.6375 36.0519 32.9851 37.2307 34 38.675" stroke="#814410" stroke-width="2" stroke-linecap="round" stroke-linejoin="round"/>
<path d="M35.1875 34C36.9529 33.9989 38.6925 34.4232 40.2592 35.237C41.8258 36.0508 43.1733 37.2301 44.1875 38.675" stroke="#814410" stroke-width="2" stroke-linecap="round" stroke-linejoin="round"/>
</svg>
