<svg width="75" height="26" viewBox="0 0 75 26" fill="none" xmlns="http://www.w3.org/2000/svg">
<path fill-rule="evenodd" clip-rule="evenodd" d="M0.566927 25.5518C0.253822 25.5518 0 25.298 0 24.9849V0.566925C0 0.253815 0.253822 0 0.566927 0H74.3013C74.6144 0 74.8682 0.253815 74.8682 0.566925V24.9849C74.8682 25.298 74.6144 25.5518 74.3013 25.5518H0.566927ZM1.13385 1.13385V24.418H73.7344V1.13385H1.13385ZM22.0884 15.9167L22.9581 16.7907V18.5417L22.6712 18.8286H20.3456V15.9167H22.0884ZM17.4612 14.0313C17.1373 14.3459 16.819 14.661 16.5002 14.9798C14.2169 15.3657 11.9393 15.7907 9.66174 16.2829C9.3383 16.0376 9.01955 15.7865 8.70133 15.5287V13.5756C9.19909 13.5004 9.69654 13.4246 10.1965 13.3484L10.6498 13.2793V14.2006C12.2743 13.9282 13.8993 13.6861 15.5232 13.4511V11.7819C13.5696 11.9949 11.6159 12.2195 9.66174 12.4736C9.3383 12.2866 9.01955 12.0965 8.70133 11.9012V9.80911V7.71475C9.01955 7.38103 9.3383 7.05077 9.66174 6.72318H16.5002C16.819 7.00183 17.1373 7.27623 17.4612 7.54662V9.15538C17.1824 9.16841 16.9036 9.18161 16.6253 9.19479C16.257 9.21223 15.8893 9.22964 15.5232 9.24658V8.40648C13.8993 8.46474 12.2743 8.52527 10.6498 8.59393V10.4632C12.5982 10.3023 14.5466 10.1564 16.5002 10.0278C16.819 10.281 17.1373 10.531 17.4612 10.7772V12.4043V14.0313ZM56.7753 10.1496V11.0033L56.8934 11.0133C58.4736 11.1469 60.0591 11.281 61.6442 11.434V10.02V8.60381C60.667 8.5658 59.6899 8.5294 58.7133 8.49606C58.0655 9.06273 57.4175 9.61378 56.7753 10.1496ZM56.7753 13.9834V15.2563C56.1222 15.1506 55.4691 15.0568 54.8212 14.9641V12.0867V9.20805C55.3045 8.81273 55.7945 8.40953 56.2759 7.99808C56.7608 7.58409 57.2472 7.15703 57.7363 6.72318H63.5868V11.6085V16.4907C62.9394 16.3657 62.2915 16.2407 61.6442 16.1167V14.7162V13.3137C60.0196 13.0933 58.3946 12.9012 56.7753 12.71V13.9834ZM20.5674 9.17206V10.2231C21.9852 10.1454 23.4082 10.0806 24.8314 10.0159L24.9914 10.0086V9.02153V8.03407L24.7259 8.03883C23.3379 8.06377 21.9502 8.08868 20.5674 8.119V9.17206ZM50.716 10.9215V13.7199L50.7111 13.7194C50.1199 13.656 49.5289 13.5926 48.9436 13.535V10.81V8.08621C47.906 8.06955 46.8691 8.05182 45.8373 8.03407V6.72318H53.7951V8.19447C52.8862 8.17096 51.9768 8.15071 51.0674 8.13045L50.716 8.1226V10.9215ZM38.7675 8.90019V9.83405L38.8033 9.83469C40.2627 9.86101 41.7274 9.88742 43.1915 9.92723V8.96472V8.00182C41.8523 7.98669 40.5125 7.97717 39.1767 7.96768L38.7675 7.96475V8.90019ZM44.9535 11.9179V13.2157C44.3664 13.1819 43.7784 13.1465 43.1915 13.11V12.4814C42.9246 12.2727 42.6578 12.0661 42.3909 11.8594L42.3024 11.7908C42.0283 11.5874 41.7542 11.3887 41.4801 11.1898L41.4133 11.1413C40.5295 11.1189 39.6456 11.0965 38.7675 11.0736V11.9996V12.9256C38.1743 12.9163 37.5816 12.909 36.9945 12.9022V9.81377V6.72318H44.0753C44.3664 6.9429 44.6571 7.16223 44.9535 7.38249V9.00592V10.6283C44.8193 10.7217 44.6862 10.8147 44.5538 10.9072C44.3938 11.019 44.2346 11.1302 44.0753 11.2408C44.3664 11.4663 44.6571 11.6908 44.9535 11.9179ZM29.5415 9.24805V9.87831C31.0123 9.84857 32.4888 9.83044 33.9655 9.82043V8.89085V7.95862C33.0764 7.96115 32.1868 7.96381 31.3035 7.96848C30.716 8.39287 30.1284 8.81953 29.5415 9.24805ZM29.5415 12.0741V13.0126C28.9488 13.035 28.356 13.0595 27.768 13.0965V10.8704V8.645C28.2076 8.31741 28.6461 7.99448 29.0857 7.67476C29.4557 7.40564 29.8298 7.13921 30.2042 6.87253C30.2741 6.82275 30.344 6.77298 30.4139 6.72318H35.7269V9.80644V12.8876C35.1613 12.8826 34.5952 12.8902 34.0296 12.8977L33.9655 12.8986V11.9761V11.0553C32.4888 11.0689 31.0123 11.0955 29.5415 11.1356V12.0741ZM20.5674 12.659V13.7001C20.2407 13.7386 19.914 13.7764 19.5882 13.8142C19.323 13.8449 19.0585 13.8755 18.795 13.9064V10.3158V6.72318H25.8748C26.166 6.9429 26.4565 7.16116 26.7535 7.37782V8.98672V10.5955C26.5071 10.783 26.2652 10.9722 26.0237 11.1613C25.9741 11.2001 25.9244 11.2389 25.8748 11.2777C24.1024 11.3747 22.3352 11.4861 20.5674 11.6179V12.659ZM20.9278 18.2464H22.38V17.0818L21.7972 16.4995H20.9278V18.2464ZM29.0232 18.2464V18.8286H26.5519V15.9167H29.0232V16.4995H27.1341V17.086H28.8775V17.6682H27.1341V18.2464H29.0232ZM35.2295 18.5417L34.9425 18.8286H32.9035L32.6164 18.5417V17.9594H33.1993V18.2464H34.6508V17.6682H32.9035L32.6164 17.4604V16.2126L32.9035 15.9167H34.9425L35.2295 16.2126V16.7907H34.6508V16.4995H33.1993V17.0818H34.9425L35.2295 17.3724V18.5417ZM39.4472 15.9167V18.8286H38.8644V15.9167H39.4472ZM45.6951 18.5417L45.4081 18.8286H43.3696L43.0827 18.5417V16.2126L43.3696 15.9167H45.4081L45.6951 16.2126V16.7907H45.1169V16.4995H43.6649V18.2464H45.1169V17.7432H44.3847V17.1604H45.6951V18.5417ZM51.9431 15.9167V18.8286H51.3644L49.9123 16.886V18.8286H49.33V15.9167H49.9123L51.3644 17.8552V15.9167H51.9431Z" fill="#0574F7"/>
</svg>
