<svg width="60" height="60" viewBox="0 0 60 60" fill="none" xmlns="http://www.w3.org/2000/svg">
<rect width="60" height="60" rx="8" fill="#CFDCFF"/>
<path d="M33 18V25H40" stroke="#3158C1" stroke-width="2" stroke-linecap="round" stroke-linejoin="round"/>
<path d="M36 42H39C39.2652 42 39.5196 41.8946 39.7071 41.7071C39.8946 41.5196 40 41.2652 40 41V25L33 18H21C20.7348 18 20.4804 18.1054 20.2929 18.2929C20.1054 18.4804 20 18.7348 20 19V30" stroke="#3158C1" stroke-width="2" stroke-linecap="round" stroke-linejoin="round"/>
<path d="M22.2125 35H21.5C20.5717 35 19.6815 35.3688 19.0251 36.0251C18.3687 36.6815 18 37.5717 18 38.5C18 39.4283 18.3687 40.3185 19.0251 40.9749C19.6815 41.6313 20.5717 42 21.5 42H27.5C28.5878 42 29.6512 41.6774 30.5556 41.0731C31.4601 40.4687 32.1651 39.6098 32.5813 38.6048C32.9976 37.5998 33.1065 36.4939 32.8943 35.427C32.6821 34.3601 32.1583 33.3801 31.3891 32.6109C30.6199 31.8417 29.6399 31.3179 28.573 31.1057C27.5061 30.8935 26.4002 31.0024 25.3952 31.4187C24.3902 31.8349 23.5313 32.5399 22.9269 33.4444C22.3226 34.3488 22 35.4122 22 36.5" stroke="#3158C1" stroke-width="2" stroke-linecap="round" stroke-linejoin="round"/>
</svg>
