<svg width="60" height="60" viewBox="0 0 60 60" fill="none" xmlns="http://www.w3.org/2000/svg">
<rect width="60" height="60" rx="8" fill="#E2D7FF"/>
<path d="M39 28V39.1125C39 39.3479 38.9065 39.5736 38.7401 39.7401C38.5736 39.9065 38.3479 40 38.1125 40H19C18.7348 40 18.4804 39.8946 18.2929 39.7071C18.1054 39.5196 18 39.2652 18 39V25C18 24.7348 18.1054 24.4804 18.2929 24.2929C18.4804 24.1054 18.7348 24 19 24H24.6625C24.8787 24.0009 25.089 24.071 25.2625 24.2L28.7375 26.8C28.911 26.929 29.1213 26.9991 29.3375 27H38C38.2652 27 38.5196 27.1054 38.7071 27.2929C38.8946 27.4804 39 27.7348 39 28Z" stroke="#6D4EBF" stroke-width="2" stroke-linecap="round" stroke-linejoin="round"/>
<path d="M39 28V39.1125C39 39.3479 38.9065 39.5736 38.7401 39.7401C38.5736 39.9065 38.3479 40 38.1125 40H19C18.7348 40 18.4804 39.8946 18.2929 39.7071C18.1054 39.5196 18 39.2652 18 39V25C18 24.7348 18.1054 24.4804 18.2929 24.2929C18.4804 24.1054 18.7348 24 19 24H24.6625C24.8787 24.0009 25.089 24.071 25.2625 24.2L28.7375 26.8C28.911 26.929 29.1213 26.9991 29.3375 27H38C38.2652 27 38.5196 27.1054 38.7071 27.2929C38.8946 27.4804 39 27.7348 39 28Z" stroke="#6D4EBF" stroke-width="2" stroke-linecap="round" stroke-linejoin="round"/>
<path d="M22 24V21C22 20.7348 22.1054 20.4804 22.2929 20.2929C22.4804 20.1054 22.7348 20 23 20H28.6625C28.8787 20.0009 29.089 20.071 29.2625 20.2L32.7375 22.8C32.911 22.929 33.1213 22.9991 33.3375 23H42C42.2652 23 42.5196 23.1054 42.7071 23.2929C42.8946 23.4804 43 23.7348 43 24V35.1125C43 35.3479 42.9065 35.5736 42.7401 35.7401C42.5736 35.9065 42.3479 36 42.1125 36H39" stroke="#6D4EBF" stroke-width="2" stroke-linecap="round" stroke-linejoin="round"/>
</svg>
